# xmcd
#
# Track frame offsets:
# 150
# 13605
# 36345
# 55575
# 71247
# 89585
# 113540
# 131770
# 145802
# 166852
#
# Disc length: 2519 seconds
#
#
# Revision: 0
# Processed by: cddbd v1.4PL0 Copyright (c) Steve Scherf et al.
# Submitted via: FreeRIP 2.00 
#
DISCID=8609d50a
DTITLE=Kim Buckley - Pouring Rain
DYEAR=1998
DGENRE=Blues
TTITLE0=What You Think About Me
TTITLE1=You Said I
TTITLE2=Why
TTITLE3=I Wanna Know
TTITLE4=Black Magic Eyes
TTITLE5=Just Me and the Sky
TTITLE6=Pouring Rain
TTITLE7=Hocus Pocus
TTITLE8=Unknown Dreamer
TTITLE9=Cheers
EXTD=
EXTT0=
EXTT1=
EXTT2=
EXTT3=
EXTT4=
EXTT5=
EXTT6=
EXTT7=
EXTT8=
EXTT9=
PLAYORDER=
